<?xml version="1.0" encoding="UTF-8"?>
<svg id="Capa_2" data-name="Capa 2" xmlns="http://www.w3.org/2000/svg" viewBox="0 0 210.98 508.47">
  <defs>
    <style>
      .cls-1 {
        fill: #ffedc0;
      }

      .cls-2 {
        fill: #570b0a;
      }
    </style>
  </defs>
  <g id="Layer_1" data-name="Layer 1">
    <path class="cls-2" d="M87.45,69.63V.51H0v507.96l8.24-2.69c10.58-3.46,15.79-5.1,26.47-8.35l4.47-1.36v-18.27l.38-274.55,47.33-4.71.1-38.49h-.04v-3.04l.04-3.04v-24.38l-6.81.52c-12.36.98-24.87,2.03-37.3,3.11l-3.25.28.07-63.15,47.74-.73ZM80.68,136.41c-.03,10.37-.03,15.54-.07,25.91-15.79,1.5-31.57,3.11-47.32,4.78-.14,97.93-.28,195.9-.38,293.83-10.65,3.25-16,4.92-26.58,8.38V6.8h74.81c-.03,10.37-.07,15.54-.1,25.91-15.86.24-31.71.52-47.57.8-.03,35.62-.07,71.25-.14,106.87,15.79-1.4,31.57-2.72,47.36-3.98Z"/>
    <path class="cls-1" d="M33.46,33.52c-.03,35.62-.07,71.25-.14,106.87,15.79-1.4,31.57-2.72,47.36-3.98-.03,10.37-.03,15.54-.07,25.91-15.79,1.5-31.57,3.11-47.32,4.78-.14,97.93-.28,195.9-.38,293.83-10.65,3.25-16,4.92-26.58,8.38V6.8h74.81c-.03,10.37-.07,15.54-.1,25.91-15.86.24-31.71.52-47.57.8Z"/>
    <path class="cls-2" d="M199.92,10.92C193,4.39,183.68.41,174.31.02h-13.76c-19.17-.7-36.08,15.37-36.92,35.17v30.63l.32,90.77c-.35,12.78,5.59,24.03,14.39,32.24-2.17-.28-4.51-.56-7.16-.84l-7.06-.8.04,3.04h-.04l.04,3.04h-.04l.04,3.04h-.04l.04,3.07h-.04l.04,3.04h-.04l.04,3.04h-.04l.04,3.04h-.04l.04,3.04h-.04l.04,3.07h-.04l.04,3.04h-.04l.77,230.65v.38c1.22,19.63,16.14,38.24,34.79,43.31,5.27,1.54,7.93,2.34,13.13,3.91,3.32,1.12,6.67,1.64,9.99,1.64,6.18,0,12.15-1.85,17.01-5.45,7.3-5.38,11.35-13.94,11.14-23.47V179.71c-.21-23.89-19.91-45.4-43.03-47.01-2.2-.14-4.3-2.3-4.3-4.47l-.14-58.68,7.72.14.07,53.19,5.94.31c10.86.59,16.27.87,27.1,1.47l6.64.38v-57.56c.04-.73.04-1.47,0-2.2v-.84c.04-.73.04-1.47,0-2.24v-.8c.04-.73.04-1.5,0-2.24v-.8c.04-.77.04-1.5,0-2.24v-.84c.04-.73.04-1.47,0-2.2v-.84c.04-.73.04-1.47,0-2.24v-.8c.04-.73.04-1.5,0-2.2v-.84c.04-.77.04-1.5,0-2.24v-.84c.04-.73.04-1.47,0-2.2v-.84c.04-.73.04-1.47,0-2.2v-.84c.35-9.74-3.56-19.03-11.04-26.12ZM204.66,87.93c-10.86-.59-16.28-.91-27.1-1.47-.04-16.69-.04-33.39-.07-50.08,0-1.85-1.54-3.39-3.42-3.42-5.41-.07-8.14-.14-13.59-.21-1.85-.03-3.39,1.4-3.39,3.21.07,30.77.14,61.54.21,92.27.04,5.48,4.68,10.37,10.2,10.76,20.15,1.4,36.99,20.89,37.16,40.76v258.48c.39,16.45-14.7,26.33-29.93,21.2-5.31-1.61-8-2.41-13.34-3.95-16.42-4.47-29.2-21.03-30.21-37.68-.24-74.5-.49-149.03-.73-223.56,10.83,1.26,16.24,1.89,27.03,3.21.17,75.79.35,151.58.52,227.37,0,1.85,1.5,3.7,3.35,4.23,5.34,1.47,8,2.24,13.34,3.74,1.85.52,3.32-.52,3.32-2.37-.11-84.59-.21-169.21-.35-253.8,0-5.52-4.58-10.48-10.13-11.07-18.9-2.03-37.86-19.21-37.3-39.33-.1-30.25-.21-60.49-.31-90.74.7-15.68,14.21-29.83,30.52-29.16h13.59c15.93.66,31.33,13.62,30.63,30.59v51.03ZM163.8,201.82c1.01.17,2.03.31,3.07.45,2.38.24,4.51,2.51,4.51,4.82l.31,218.29c-2.41-.66-4.54-1.26-7.4-2.06l-.49-221.5Z"/>
    <path class="cls-1" d="M157.1,35.96c.07,30.77.14,61.54.21,92.27.04,5.48,4.68,10.37,10.2,10.76,20.15,1.4,36.99,20.89,37.16,40.76v258.48c.39,16.45-14.7,26.33-29.93,21.2-5.31-1.61-8-2.41-13.34-3.95-16.42-4.47-29.2-21.03-30.21-37.68-.24-74.5-.49-149.03-.73-223.56,10.83,1.26,16.24,1.89,27.03,3.21.17,75.79.35,151.58.52,227.37,0,1.85,1.5,3.7,3.35,4.23,5.34,1.47,8,2.24,13.34,3.74,1.85.52,3.32-.52,3.32-2.37-.11-84.59-.21-169.21-.35-253.8,0-5.52-4.58-10.48-10.13-11.07-18.9-2.03-37.86-19.21-37.3-39.33-.1-30.25-.21-60.49-.31-90.74.7-15.68,14.21-29.83,30.52-29.16h13.59c15.93.66,31.33,13.62,30.63,30.59v51.03c-10.86-.59-16.28-.91-27.1-1.47-.04-16.69-.04-33.39-.07-50.08,0-1.85-1.54-3.39-3.42-3.42-5.41-.07-8.14-.14-13.59-.21-1.85-.03-3.39,1.4-3.39,3.21Z"/>
  </g>
</svg>