<?xml version="1.0" encoding="UTF-8"?>
<svg id="Capa_2" data-name="Capa 2" xmlns="http://www.w3.org/2000/svg" viewBox="0 0 648 325.63">
  <defs>
    <style>
      .cls-1 {
        fill: #ffedc0;
      }

      .cls-2 {
        fill: #ec008c;
      }

      .cls-3 {
        fill: #570b0a;
      }
    </style>
  </defs>
  <g id="Layer_1" data-name="Layer 1">
    <g>
      <g>
        <path class="cls-3" d="M55.98,44.78V.53H0v325.09l5.28-1.72c6.77-2.2,10.11-3.25,16.94-5.34l2.85-.87v-11.69l.26-175.72,30.28-3.01.08-24.63h-.03v-1.94s.02-1.95.02-1.95v-3.9s.02-1.95.02-1.95h-.02l.02-9.75-4.36.35c-7.92.62-15.92,1.29-23.87,1.98l-2.08.17.05-40.4,30.56-.47Z"/>
        <path class="cls-3" d="M120.92,2.48V.53s-55.94,0-55.94,0l-1.15,287.56h0s0,1.95,0,1.95h0s0,1.95,0,1.95h0s0,1.95,0,1.95h0s0,1.95,0,1.95h0s0,1.95,0,1.95h0s0,1.95,0,1.95h0s0,1.95,0,1.95h0s0,1.95,0,1.95h0s0,1.95,0,1.95h0s0,1.95,0,1.95l5.03-1.26c15.65-3.92,31.59-7.58,47.39-10.87l3.19-.67.13-23.9h-.01s.01-1.95.01-1.95h-.01s.01-1.95.01-1.95h-.01s.01-1.95.01-1.95h-.01s.01-1.95.01-1.95h-.01s.01-1.95.01-1.95h-.01s.01-1.95.01-1.95h-.01s.01-1.95.01-1.95h-.01s.01-1.95.01-1.95h-.01s.01-1.95.01-1.95h-.01s.01-1.95.01-1.95l-4.82.92c-8.45,1.62-16.97,3.36-25.41,5.2l.62-132.94,30.56-2.37-.02-43.26-4.3.26c-6.16.37-12.38.76-18.58,1.17l-7.46.47.17-36.67c8.83-.12,17.66-.23,26.5-.34l3.96-.05.13-23.75h-.01v-1.95s0,0,0,0v-1.95s0,0,0,0v-1.95s0,0,0,0v-1.95s0,0,0,0v-1.95s0,0,0,0v-1.95s0,0,0,0v-1.95s0,0,0,0v-1.95s0,0,0,0v-1.95s0,0,0,0Z"/>
        <path class="cls-3" d="M184.9.53h-55.95l-1.52,273.62h0v1.95s0,0,0,0v1.95s0,0,0,0v1.95s0,0,0,0v1.95s0,0,0,0v1.95s0,0,0,0v1.95s0,0,0,0v1.95s0,0,0,0l-.02,2.02h0v1.42s0,0,0,0l-.02,2.34,4.79-.88c15.82-2.91,31.92-5.54,47.84-7.81l3.44-.49.13-23.78h-.02v-1.36s0,0,0,0v-1.94s0,0,0,0l.02-2.56h-.02s0-1.35,0-1.35h0v-1.95s0,0,0,0v-1.94s0,0,0,0v-1.95s0,0,0,0v-1.95s0,0,0,0v-1.92s0,0,0,0v-2s-4.56.6-4.56.6c-8.6,1.11-17.28,2.35-25.89,3.69l.71-125.81c8.86-.52,17.82-1.01,26.69-1.44l3.82-.19.12-22.98h0v-1.95s0,0,0,0v-1.95s0,0,0,0v-1.95s0,0,0,0v-1.94s0,0,0,0v-2.49s0,0,0,0v-1.41s0,0,0,0v-1.94s0,0,0,0v-2.49s0,0,0,0v-1.95s0,0,0,0v-1.58s-4.21.18-4.21.18c-8.66.35-17.44.74-26.17,1.17l.19-33.81c8.84-.09,17.67-.17,26.5-.24l3.98-.03.11-23.14V2.48s0,0,0,0V.53Z"/>
        <path class="cls-3" d="M307.93.65v42.12h-4.04c-5.49,0-8.81,0-13.4,0l-.27,233.11-3.94.1c-7.04.17-10.49.28-17.55.57l-4.21.18v-2.94s0,0,0,0v-5.03s0-3.9,0-3.9h0v-3.9s0-1.95,0-1.95h0l.44-216.19c-4.54,0-7.86.02-13.33.04l-4.06.02v-3.92s0,0,0,0v-1.94s0,0,0,0v-1.95s0,0,0,0v-1.95s0,0,0,0v-1.95s0,0,0,0v-1.94s0,0,0,0v-1.95s0,0,0,0v-1.95s0,0,0,0v-1.95s.06-22.73.06-22.73h60.29Z"/>
        <path class="cls-3" d="M377.39,260.6h0v-3.09s-.47-163.47-.47-163.47c0-.28-.02-.61-.05-.97v-17.37l-.15-54.98v-.15c-.52-12.75-12.41-20.36-23.63-20.36h-34.54l.1,275.06,4,.03c7.07.06,10.51.11,17.56.3l4.15.11v-2.05s0,0,0,0v-1.03s0,0,0,0v-2.87s0,0,0,0v-1.95s0,0,0,0v-1.94s0,0,0,0v-1.95s0,0,0,0v-1.95s0,0,0,0v-1.95s0,0,0,0v-1.94s0,0,0,0v-1.95s0,0,0,0l-.19-140.83c2.42.02,4.48.06,7.22.09l.32,160.6,3.86.16c7.05.29,10.49.47,17.54.89l4.28.25v-3.01h0v-3.08s0-10.57,0-10.57ZM351.3,73.2c-2.7-.02-4.75-.05-7.19-.07l-.03-30.78c2.4,0,4.45,0,7.15.02l.06,30.83Z"/>
        <path class="cls-3" d="M445.4,270.55h.02l-.02-2.56h0v-1.94s0,0,0,0v-1.95s0,0,0,0l-1.21-242.69v-.23c-.81-13.09-12.48-20.3-23.58-20.65h-8.86c-11.25,0-23.13,7.65-23.54,20.46v1.85s0,.14,0,.14v1.81s0,.14,0,.14v1.81s0,.14,0,.14v1.81s0,.14,0,.14v1.81s0,.14,0,.14v1.81s0,.14,0,.14v1.81s0,.14,0,.14v1.81s0,.14,0,.14v1.81s0,.14,0,.14v1.81s0,.14,0,.14l.81,237.47,3.72.27c7.06.52,10.49.81,17.52,1.46l4.42.4v-1.8s0,0,0,0v-1.95s0,0,0,0v-2.48s0,0,0,0v-1.95s0,0,0,0v-1.41s0,0,0,0v-1.95s0,0,0,0v-2.48s0,0,0,0v-1.41s0,0,0,0v-1.95s0,0,0,0v-2.48s0,0,0,0l-.59-143.21c1.7.06,3.23.11,4.95.17l.74,163.43,3.6.38c7.02.74,10.45,1.14,17.47,2l4.55.56v-1.94s0,0,0,0v-1.95s0,0,0,0v-1.94s0,0,0,0v-1.95s0,0,0,0v-1.96s0,0,0,0v-1.95s0,0,0,0v-1.35ZM418.86,74.8c-1.69-.05-3.22-.1-4.94-.15l-.13-31.74,4.93.02.15,31.86Z"/>
        <path class="cls-3" d="M513.54,251.54c0-.11,0-.23,0-.37l-1.28-229.65v-.21c-.69-11.9-10.61-20.87-23.58-21.32h-32.49l.02,1.95h-.02l.02,1.95h-.02l.02,1.94h-.02l.02,1.95h-.02l.02,1.95h-.02l.02,1.95h-.02l.02,1.94h-.02l.02,1.95h-.02l.02,1.95h-.02l.02,1.94h0l1.4,264.38,3.47.48c9.4,1.3,18.92,2.76,28.2,4.31,1.43.27,2.87.4,4.31.4,5.04,0,9.92-1.65,13.61-4.7,4.1-3.39,6.36-8.25,6.37-13.71v-1.57c0-.12,0-.23,0-.38v-1.57c0-.12,0-.23,0-.38v-1.57c0-.11,0-.23,0-.37v-1.58c0-.11,0-.23,0-.37v-1.57c0-.12,0-.23,0-.38v-1.57c0-.11,0-.23,0-.38v-1.57c0-.11,0-.23,0-.37v-1.58c0-.11,0-.23,0-.37v-1.57c0-.12,0-.23,0-.38v-1.57ZM481.91,42.86l4.89.04,1.14,202.55c-1.76-.27-3.23-.5-4.9-.75l-1.12-201.84Z"/>
        <path class="cls-3" d="M581.26,264.52c0-.13,0-.26,0-.35l-.97-241.45c.39-12.93-11.84-22.07-23.55-22.51h-8.77c-12.22-.47-23.04,9.38-23.6,21.55v.1s0,1.77,0,1.77l-.02.18.02,1.77-.02.17.02,1.78-.02.17.02,1.77-.02.19.02,1.77-.02.18.02,1.77-.02.17.02,1.77-.02.19.02,1.77-.02.18.02,1.77-.02.18.02,1.76-.02.19,1.27,232.16v.25c.8,11.94,10.8,23.15,22.79,25.55,3.4.77,5.12,1.16,8.52,1.95,1.8.47,3.63.7,5.44.7,4.48,0,8.8-1.41,12.2-4.07,4.38-3.42,6.76-8.49,6.69-14.23v-19.14M555.85,257.2c-1.6-.35-2.97-.65-4.81-1.03l-1.08-212.38,4.9.06,1,213.35Z"/>
        <path class="cls-3" d="M640.92,7.2c-4.42-4.19-10.4-6.73-16.4-6.98h-8.79c-12.27-.45-23.09,9.85-23.64,22.53v1.92s0,.02,0,.02v1.92s0,.02,0,.03v1.92s0,.02,0,.03v1.92s0,.02,0,.03v1.91s0,.02,0,.03v1.92s0,.02,0,.03v1.92s0,.02,0,.03v1.92s0,.02,0,.02v1.92s0,.02,0,.03v1.92s0,.02,0,.03v.1l.19,58.1c-.2,8.19,3.6,15.39,9.21,20.62-1.38-.16-2.87-.34-4.57-.53l-4.51-.52v1.95s0,0,0,0v1.95s0,0,0,0v1.95s0,0,0,0v1.95s0,0,0,0v1.95s0,0,0,0v1.95s0,0,0,0v1.95s0,0,0,0v1.95s0,0,0,0v1.95s0,0,0,0v1.94s0,0,0,0l.48,147.63v.23c.77,12.57,10.34,24.48,22.27,27.74,3.36.98,5.06,1.48,8.41,2.5,2.11.7,4.27,1.05,6.39,1.05,3.94,0,7.77-1.19,10.88-3.48,4.67-3.44,7.27-8.92,7.14-15.03V115.22c-.13-15.27-12.73-29.04-27.54-30.07-1.41-.1-2.75-1.49-2.76-2.87l-.08-37.56,4.93.09.05,34.06,3.81.2c6.94.36,10.4.56,17.33.94l4.26.23v-36.83c.02-.48,0-.94,0-1.42v-.53c.02-.48,0-.94,0-1.42v-.52c.02-.48,0-.95,0-1.42v-.53c.02-.48,0-.95,0-1.42v-.53c.02-.48,0-.94,0-1.42v-.53c.02-.48,0-.94,0-1.42v-.52c.02-.48,0-.95,0-1.42v-.53c.02-.48,0-.95,0-1.42v-.53c.02-.48,0-.94,0-1.42v-.53c.02-.48,0-.94,0-1.42v-.52c.23-6.25-2.28-12.19-7.07-16.72ZM619.77,129.66c1.53.17,2.89,1.61,2.89,3.09l.19,139.71c-1.54-.43-2.9-.81-4.73-1.31l-.32-141.77c.65.11,1.31.22,1.97.29Z"/>
        <path class="cls-3" d="M248.57,90.68v-1.95s-4.15.11-4.15.11c-7.04.19-10.47.29-17.5.52l-3.89.13-.61,148.25c-1.9.17-3.41.31-5.01.46l.99-218.16h0v-1.95s0,0,0,0v-1.95s0,0,0,0v-1.95s0,0,0,0v-1.95s0,0,0,0v-1.95s0,0,0,0v-1.95s0,0,0,0v-1.95s0,0,0,0v-1.95s0,0,0,0v-1.95s0,0,0,0V.53s-25.47,0-25.47,0l-1.32,263.57h0s0,1.95,0,1.95h0s0,1.95,0,1.95h0s0,1.95,0,1.95h0s0,1.95,0,1.95h0s0,1.95,0,1.95h0s0,1.95,0,1.95h0s0,1.95,0,1.95h0s0,1.95,0,1.95h0s0,1.95,0,1.95h0s0,1.95,0,1.95l4.55-.56c9.41-1.16,18.97-2.2,28.4-3.09h.13c10.61-1.37,22.44-8.82,23.35-21.96l.52-149.76h0s0-1.95,0-1.95h0v-1.95s0,0,0,0v-1.95s0,0,0,0v-1.95s0,0,0,0v-1.95s0,0,0,0v-1.95s0,0,0,0v-1.95s0,0,0,0v-1.95s0,0,0,0v-1.95s0,0,0,0Z"/>
      </g>
      <g>
        <path class="cls-1" d="M4.04,4.56h17.41c10.16,0,20.31,0,30.47,0-.02,6.64-.03,9.95-.05,16.59-10.15.16-20.29.33-30.44.51-.03,22.8-.06,45.59-.09,68.39,10.1-.89,20.21-1.74,30.31-2.54-.02,6.64-.03,9.95-.05,16.59-10.1.96-20.19,1.97-30.28,3.04-.09,62.69-.17,125.38-.26,188.07-6.82,2.08-10.22,3.15-17.01,5.36V4.56Z"/>
        <path class="cls-1" d="M68.99,4.56h47.88c-.03,6.29-.05,9.44-.09,15.73-10.15.12-20.31.25-30.46.39-.1,21.5-.2,43-.3,64.5,10.14-.7,20.28-1.36,30.42-1.96-.03,6.29-.05,9.44-.09,15.73-10.14.73-20.28,1.51-30.41,2.35-.25,53.75-.5,107.49-.76,161.24,10.07-2.24,20.18-4.33,30.32-6.28-.03,6.29-.05,9.44-.09,15.73-15.93,3.32-31.76,6.95-47.55,10.91.37-92.78.74-185.57,1.12-278.35Z"/>
        <path class="cls-1" d="M132.97,4.56h47.88c-.03,6.04-.05,9.06-.08,15.11-10.16.08-20.32.18-30.48.28-.12,20.51-.23,41.03-.35,61.54,10.17-.51,20.33-.97,30.5-1.39-.03,6.04-.05,9.06-.08,15.11-10.17.5-20.34,1.05-30.51,1.66-.29,51.28-.58,102.57-.86,153.85,10.17-1.63,20.36-3.11,30.57-4.44-.03,6.04-.05,9.06-.08,15.11-16.06,2.29-32.04,4.91-48,7.84.49-88.22.98-176.45,1.48-264.67Z"/>
        <path class="cls-1" d="M251.66,4.68h52.24c0,5.82,0,8.74,0,14.56-6.97,0-10.46,0-17.43.02-.09,77.73-.18,155.47-.27,233.2-7.05.17-10.58.28-17.62.58.16-77.92.32-155.83.47-233.74-6.97.02-10.45.03-17.42.05.02-5.86.02-8.8.04-14.66Z"/>
        <path class="cls-1" d="M322.59,4.24h30.47c9.54-.02,19.23,6.27,19.64,16.49.05,18.33.1,36.65.16,54.98,0,2.76-1.34,9.38-9.89,9.55,8.56-.17,9.95,6.75,9.95,8.77.15,53.15.3,106.3.45,159.44-7.04-.42-10.57-.6-17.61-.89-.11-52.96-.21-105.92-.32-158.87,0-1.01-.98-1.84-2.19-1.86-5.25-.07-7.87-.1-13.12-.15.07,53.45.14,106.91.21,160.36-7.05-.18-10.58-.24-17.63-.3-.03-82.51-.07-165.02-.1-247.53ZM340.02,18.81c.03,19.44.05,38.88.07,58.31,5.24.04,7.86.07,13.11.13,1.21.01,2.18-.79,2.18-1.8-.04-18.26-.07-36.52-.11-54.78,0-1.01-.98-1.83-2.18-1.83-5.23-.01-7.84-.02-13.07-.03Z"/>
        <path class="cls-1" d="M411.78,4.56h8.71c9.82.32,19.04,6.5,19.67,16.87.4,79.37.79,158.73,1.19,238.1-7.01-.87-10.52-1.27-17.54-2.01-.25-54.56-.49-109.12-.74-163.68-5.24-.2-7.86-.29-13.1-.46.22,54.28.44,108.56.67,162.84-7.03-.65-10.55-.94-17.58-1.46-.27-77.88-.53-155.76-.8-233.64.33-10.23,9.99-16.57,19.53-16.56ZM411.84,19.38c-1.2,0-2.17.82-2.17,1.84.08,19.12.16,38.24.23,57.36,5.24.14,7.86.22,13.09.38-.09-19.22-.17-38.44-.26-57.66,0-1.03-.98-1.87-2.19-1.87-3.48-.02-5.23-.03-8.71-.05Z"/>
        <path class="cls-1" d="M460.25,4.03h28.29c10.09.34,19.08,7.01,19.69,17.52.43,76.55.85,153.09,1.28,229.64-.02,10.39-10.13,15.79-19.5,14.02-9.44-1.59-18.91-3.03-28.4-4.35-.45-85.61-.91-171.22-1.36-256.83ZM477.74,19.29c.42,76.3.85,152.59,1.27,228.89,4.37.64,6.55.98,10.91,1.67,1.2.19,2.18-.51,2.17-1.58-.42-75.64-.85-151.29-1.27-226.93,0-1.06-.99-1.93-2.19-1.94-4.35-.04-6.53-.06-10.88-.1Z"/>
        <path class="cls-1" d="M547.9,4.25h8.71c9.7.36,20.03,7.75,19.66,18.42.32,80.5.65,161.01.97,241.51.13,10.48-9.82,16.15-19.33,13.67-3.46-.81-5.19-1.21-8.65-1.98-10.22-2.02-18.91-11.54-19.6-21.88-.42-77.35-.84-154.7-1.26-232.05.46-9.9,9.45-18.12,19.49-17.7ZM547.98,20.23c-1.2-.02-2.17.86-2.17,1.97.4,78.42.8,156.83,1.19,235.25,0,1.1.98,2.2,2.18,2.45,3.46.73,5.19,1.11,8.65,1.87,1.19.26,2.16-.42,2.15-1.54-.37-79.28-.74-158.55-1.11-237.83,0-1.11-.98-2.03-2.18-2.05-3.48-.05-5.22-.07-8.7-.12Z"/>
        <path class="cls-1" d="M615.66,4.25h8.71c10.19.42,20.03,8.72,19.59,19.59v32.65c-6.93-.39-10.4-.58-17.34-.95-.01-10.69-.03-21.37-.04-32.06,0-1.18-.98-2.15-2.18-2.18-3.48-.06-5.22-.09-8.7-.15-1.2-.02-2.17.91-2.17,2.07.04,19.69.09,39.37.13,59.06,0,3.49,2.98,6.64,6.51,6.88,12.91.9,23.68,13.35,23.79,26.09v165.42c.25,10.55-9.4,16.86-19.14,13.58-3.41-1.03-5.12-1.54-8.54-2.54-10.5-2.84-18.69-13.44-19.33-24.1-.16-47.7-.32-95.39-.47-143.09,6.92.79,10.38,1.2,17.29,2.05.11,48.51.22,97.02.33,145.53,0,1.17.96,2.37,2.14,2.7,3.42.94,5.13,1.42,8.55,2.39,1.18.34,2.13-.35,2.13-1.53-.07-54.14-.15-108.28-.22-162.42,0-3.54-2.93-6.71-6.49-7.09-12.1-1.31-24.22-12.29-23.88-25.17-.06-19.36-.13-38.71-.19-58.07.43-10.03,9.08-19.09,19.53-18.66Z"/>
        <path class="cls-1" d="M213.28,242.64c4.39-.44,6.58-.64,10.97-1.03,1.21-.11,2.2-1.02,2.2-2.04.2-48.73.4-97.46.6-146.18,6.99-.23,10.48-.33,17.47-.52-.17,48.45-.33,96.89-.5,145.34-.72,10.46-10.05,16.97-19.84,18.22-9.52.9-19.03,1.93-28.52,3.1.42-84.99.85-169.98,1.28-254.97h17.41c-.03,5.95-.04,8.93-.07,14.88-.11,24.8-.22,49.6-.34,74.4l-.67,148.8Z"/>
      </g>
      <path class="cls-2" d="M25.32,114.37v.16h0v-.16h0ZM25.32,116.32v.15h0v-.15h0Z"/>
    </g>
  </g>
</svg>