<?xml version="1.0" encoding="UTF-8"?>
<svg id="Capa_2" data-name="Capa 2" xmlns="http://www.w3.org/2000/svg" viewBox="0 0 525.04 655.2">
  <defs>
    <style>
      .cls-1 {
        fill: #ffedc0;
      }

      .cls-2 {
        fill: #570b0a;
      }
    </style>
  </defs>
  <g id="Layer_1" data-name="Layer 1">
    <g>
      <path class="cls-2" d="M510.65,376.49c-1.47-1.66-2.64-3.47-3.74-5.39-2.25-3.87-3.98-8.07-5.21-12.47-.64-2.23-1.06-4.64-1.76-6.92.87-.28,1.71-.68,2.52-1.16,8.19-5.13,5.57-16.23-.79-21.9-1.15-30.67-17.67-60.97-42.09-79.38-.81-.62-1.7-1.28-2.66-1.98,12.61-26.63,25.48-53.17,38.6-78.37,2.36-4.52,2.81-9.98,1.24-14.97-1.56-4.97-5.01-9.01-9.43-11.03-22.41-10.27-45.53-18.58-69.26-24.92.17-1.07.33-2.13.48-3.19,1.13-8.01,1.35-16.51.52-24.89-1.59-15.98-7-31.44-17.36-41.91-.33-.34-.68-.68-1.02-1-.37-.34-.74-.69-1.12-1.02-.39-.32-.76-.67-1.16-.98-.53-.45-1.07-.87-1.63-1.29-.25-.2-.5-.38-.76-.55-.24-.18-.48-.34-.73-.5-.01-.02-.02-.03-.03-.03-.18-.14-.37-.25-.54-.35-.28-.2-.57-.39-.85-.54-.27-.2-.54-.37-.81-.52-.05-.03-.09-.06-.15-.07-.47-.29-.95-.56-1.43-.82-20.74-11.2-48.36-5.26-64.25,13.83-2.46,2.97-4.68,6.23-6.65,9.77-1.12,2.03-2.16,4.15-3.12,6.36-1.19,2.76-2.25,5.67-3.17,8.71,0,.01-.01.03-.01.03-2.15,7.08-3.58,14.97-4.3,23.68-8.81-.2-17.68-.18-26.59.1-7.74.24-15.53.69-23.29,1.32-1.27-7.52-3.44-15.21-6.48-22.51-6.07-14.67-15.61-27.77-28.34-34.83-.41-.25-.82-.47-1.24-.68-.44-.23-.89-.45-1.35-.65-.45-.23-.91-.44-1.37-.64-.06-.04-.14-.06-.2-.08-.3-.13-.59-.25-.9-.37-.13-.06-.25-.11-.38-.16-.31-.13-.64-.25-.96-.37-.54-.2-1.08-.38-1.64-.54-.42-.14-.85-.28-1.27-.4-.42-.13-.83-.22-1.25-.32-.65-.18-1.29-.32-1.94-.46-16.82-3.43-34.5,2.92-46.61,15.48-.56.58-1.12,1.18-1.65,1.79-.54.62-1.06,1.24-1.58,1.88-.52.63-1.02,1.27-1.5,1.93-.34.48-.68.94-1,1.42-.37.54-.73,1.11-1.08,1.65-.22.34-.44.7-.65,1.06-.43.7-.83,1.43-1.23,2.15-.59,1.11-1.16,2.22-1.67,3.37-.17.39-.33.78-.5,1.16-.21.51-.42,1.02-.63,1.53-.21.52-.4,1.04-.58,1.56-.42,1.18-.8,2.36-1.16,3.57-.23.79-.45,1.61-.66,2.43-.3,1.22-.57,2.46-.82,3.72v.02c-.31,1.69-.57,3.39-.79,5.13.01.01,0,.02,0,.04-.07.66-.15,1.32-.2,2-.03.41-.06.81-.09,1.23-.08.94-.14,1.89-.17,2.87-.02.41-.03.81-.04,1.24-.02.72-.03,1.45-.03,2.18,0,.04.01.08.02.13v.21h0c.03,7.48.97,15.5,2.85,24.12-19.14,6.34-37.93,13.94-56.29,22.77-7.77,3.73-11.6,13.32-8.89,22.28l53.93,178.63s-.08.06-.12.1c-4.43,3.61-9.59,6.7-15.35,9.13-6.02,2.57-12.49,4.37-19.25,5.37-5.88-8.49-16.63-9.56-23.53-3.32-3.64-2.16-7.67-3.9-11.3-5.87-3.94-2.26-7.2-5.43-9.8-9.16-4.39-5.76-6.57-13.5-13.69-16.85-5.36-2.45-12.64.3-14.19,6.19-1.58,5.3,1.29,10.71,4.32,14.73,3.85,5.17,8.62,9.8,14.15,13.09-7.6-1.2-14.27-4.94-21.41-7.94-7.34-2.85-17.73-6.52-24.91-1.08-5.65,4.95-5.69,12.51-.06,17.4,9.52,8.18,25.53,10.8,38.03,9.62-.11.85-.08,1.75.03,2.62-7.5.64-17.65,1.96-24.95,2.7-4.36.58-8.96,1.37-13.21,3.89-4.32,2.49-7.8,7.93-6.06,13.08,1.98,6.26,8.78,8.65,14.71,8.65,7.83.17,15.55-2.37,22.35-6.04,3.53-1.87,6.85-4.05,10.06-6.34.68,1.21,1.79,2.23,2.89,3.05-3.09,2.9-6.16,5.75-9.57,8.23-3.87,2.71-7.81,5.21-10.9,9.08-2.23,2.73-3.79,6.75-2.38,10.32,1.36,3.6,4.53,6.55,8.46,6.97,7.09.5,12.91-4.71,17.29-9.56,3.97-4.65,7.23-9.49,12.62-12.43,6.98-4.06,15.33-6.08,21.79-11.14,6.34,3.59,13.54,3.31,18.9-2.72,1.12-1.32,2.04-2.77,2.81-4.34,8.24-.33,18.57-2.57,28.29-6.72,4.93-2.09,9.65-4.54,14.1-7.26l15.22,50.4.09.03c.16.37.39.69.68.99,8.68,9.24,31.52,15.95,61.24,18.23l-24.51,86.52c-6.64,3.26-11.52,9.15-11.25,17.55,0,.14.01.26.02.38-1.42-2.49-3.09-4.83-4.98-6.97-14.05-16.17-41.53-19.67-58.46-6.01-8.36,6.74-13.55,17.52-13.04,28.16-1.01,2.2-1.32,4.78-.83,7.16-40.12,8-65.06,19.22-65.06,31.66,0,24.29,95.46,44,213.23,44s213.23-19.71,213.23-44c0-15.06-36.63-28.36-92.49-36.28,4.52-5.93,3.51-15.57,2.3-22.42-.44-2.3-.97-4.61-1.73-6.84,0-.01,0-.03-.01-.04-.7-5.2-3.17-10-7.96-12.97-1.99-1.26-4.17-2.12-6.4-2.66-.01-1.31-.21-2.63-.6-3.93-3.24-10.68-15.98-14.36-25.28-9.49-7.4-4.43-14.12-10.15-19.13-18.13-8.19-12.58-10.69-30.26-7.38-46.6.33-1.66.38-3.33.15-4.91,23.91-5.09,42.42-12.65,51.16-21.08.25-.24.47-.48.65-.76.44-.48.85-.98,1.25-1.52v-.02c.49-.69.93-1.41,1.34-2.17,21.44-40.91,42.13-85.3,62.14-128.23,2.63-5.65,5.28-11.32,7.94-17.01,9.43,6.78,16.61,16.01,20.24,22.99,4.45,8.2,7.11,17.35,7.96,26.9v.02c-1.06.66-2.06,1.44-3,2.33-4.44,4.27-5.67,10.98-2.72,16.06-1.15,1.4-2.17,2.93-3.1,4.49-7.3,13.21-13.47,10.87-25.96,15.2-7.79,2.72-14.2,11.35-8.36,19.01,3.15,3.98,8.91,4.35,13.25,2.58,3.85-1.18,7.09-4.13,10.97-4.9.22-.02.41-.04.6-.02h.05c.35.09.68.26.94.53,1.07,1.62.28,3.58-.2,5.34-1.16,3.89-2.66,7.69-4.11,11.56-2.82,7.91-6.97,17.97-.78,25.47,3.3,4.04,9.25,4.78,13.88,2.81,4.68-1.86,7.03-6.96,7.6-11.5.65-4.38.33-8.57-.03-12.7-.23-2.94-.68-6.02.32-8.78.06-.16.13-.28.21-.42.05-.08.1-.15.17-.21.63-.66,1.52-.98,2.38-.66,3.46,1.8,3.82,7.13,4.47,10.67,1.1,6.17.03,13.17,3.11,19.14,2.2,4.41,7.52,7.41,12.5,6,3.78-1.07,6.67-3.87,8.2-7.36,2.35-5.66-.33-11.84-2.99-16.79-.55-.96-1.71-3.21-2.19-4.15-1.51-3.15-3.59-6.3-3.85-9.84-.01-.48.05-.96.23-1.39t.01-.02c.73-.88,1.83-1.4,3.02-1.28,3.36.52,5.03,4.12,6.51,6.91,2.41,5.34,5.36,12.48,12.02,13.48,4.15.52,8.82-1.95,9.94-6.18,2.48-10.78-7.96-17.84-14.02-24.9ZM85.8,402.19c-.07.06-.16.14-.23.18-.07.06-.15.1-.23.15-1.24.88-2.6,1.66-4.09,2.33-8.29,4.07-18.17,6.2-24.73,13.23-4.29,4.35-7.72,9.24-12.82,12.45-4.57,3.11-9.84,3.85-12.38-1.63-2.23-6.26,6.89-12.45,10.99-16.26,3.22-2.89,6.04-6.21,8.63-9.63.01.01.02.01.03.02.82.51,1.7.96,2.62,1.18l.1-.21c-1.44-1.07-2.58-2.46-3.43-3.98-.7-1.78-1.25-3.07-2.73-4.52l-.23.04c-.59,1.28-.48,2.5.02,3.61-1.51.93-3.03,1.85-4.6,2.69-8.79,4.89-18.83,8.6-29,7.32-4.14-.37-8.91-2.56-10.02-6.77-1.35-6.11,5.42-9.35,10.49-10.52,3.48-.92,8.98-1.78,12.61-2.52,6.1-1.26,12.12-2.87,17.99-4.97.05.34.14.7.22,1.02.32.98.77,1.87,1.36,2.65l.21-.1c-.5-1.78-.53-3.59-.1-5.35.68-1.83,1.23-3.33.92-5.41l-.21-.1c-1.4.8-2.14,2.02-2.44,3.41-8.53.18-17.02-1.37-24.84-4.52-5.36-2.25-12.81-5.61-14.22-11.69-.62-3.57,2.08-7.76,5.68-8.65,6.25-1.47,12.59,1.43,18.59,3.57l6.32,2.52c6.32,2.84,14.06,4.55,20.81,2.16l-.06-.43c-.82-.02-1.63-.08-2.42-.17h-.01c-4.12-3.84-7.72-7.92-10.79-12.52-1.79-2.71-3.79-5.72-4.72-8.71-2.26-6.09,1.9-11.41,8.25-9.5,6.15,2.63,8.63,10.14,12.84,15.06,2.96,3.8,6.73,7.11,11.02,9.32,3.63,1.73,7.63,3.17,11.3,5.02.4.2.78.41,1.17.63.43.22.84.45,1.25.7.2.11.39.24.57.35,2.46,1.85,4.54,3.78,6.11,6.3.23.37.45.75.66,1.17,1.96,3.95,2.69,8.56,2.54,12.95-.11,3.49-.79,6.68-2.02,9.51-1.5,3.43-3.83,6.33-6.98,8.62ZM106.46,397.11c-.47.97-1.02,1.9-1.65,2.76-3.24,4.47-9.02,6.34-14.29,4.42-.68-.21-1.36-.45-2.01-.74.65-.55,1.27-1.13,1.87-1.73,1.92-2,3.42-4.41,4.51-7.06,3.32-8.16,2.65-18.51-2.05-25.69-.59-.93-1.27-1.8-2.01-2.61-1.22-1.21-2.7-2.45-4.32-3.59-.13-.08-.25-.17-.38-.27.65-.33,1.29-.59,1.96-.81,5-1.65,9.88.09,13.38,3.59h.01c1.14,1.12,2.13,2.42,2.94,3.85,4.52,7.47,6.04,19.53,2.04,27.88ZM321.74,72.56c.23-.56.47-1.13.74-1.69.25-.55.51-1.11.77-1.64.17-.37.35-.74.54-1.08.19-.37.37-.73.56-1.08.22-.4.44-.78.66-1.18.22-.41.45-.78.67-1.17.23-.4.46-.76.69-1.15.69-1.14,1.43-2.22,2.2-3.28.24-.35.5-.7.77-1.04.25-.34.51-.69.79-1.02.26-.34.53-.68.8-1,11.12-13.34,28.47-19.64,44.43-17.23,4.8.72,9.47,2.22,13.81,4.57.41.22.82.45,1.22.69.16.08.3.18.45.27.3.19.59.37.89.55.23.16.46.29.69.45.29.21.58.41.87.62.24.16.48.33.72.52.51.38,1.01.76,1.49,1.18.29.24.57.48.85.74.83.72,1.64,1.48,2.4,2.28.33.34.67.7.99,1.06,4.85,5.33,8.13,11.7,10.34,17.97.2.54.38,1.06.55,1.61.45,1.32.82,2.63,1.17,3.91.22.8.42,1.61.59,2.39.2.8.38,1.61.53,2.39.15.7.28,1.39.39,2.04.14.7.25,1.39.34,2.06.01.02.01.04.01.07.01.03.02.05.02.08h-.01c-.55-.27-1.11-.55-1.66-.81-12.89-6.32-26.6-10.43-40.87-12.23-2.84-.34-5.7-.6-8.57-.78-14.13-.82-28.51.68-42.2,4.43.44-1.19.9-2.35,1.38-3.49ZM314.33,111.06c.04-1.41.1-2.78.19-4.13.07-1.41.18-2.76.29-4.11.66-7.78,1.9-14.84,3.72-21.2,11.95-3.61,24.51-5.43,36.99-5.38-8.59,7.14-12.52,17.2-14.28,28.19-.22,1.35-.41,2.69-.55,4.07-.16,1.37-.28,2.72-.39,4.11-.06.87-.13,1.73-.17,2.61l34.22,17.27-33.82,18.05c.28,4.39.68,9.54,1.17,14.28.49,4.73,1.08,9.05,1.76,11.79-7.44.02-14.73.8-21.76,2.33-2.17-7.53-6.5-41-6.81-45.21-.6-8.09-.79-15.64-.56-22.66ZM155.15,96.66c.02-.53.06-1.08.12-1.62.07-.82.15-1.65.24-2.45.18-1.61.42-3.17.72-4.71.15-.78.3-1.54.48-2.28.13-.6.27-1.22.44-1.8.15-.6.31-1.19.48-1.77.12-.42.24-.83.39-1.26.11-.42.26-.83.41-1.24.12-.38.26-.76.4-1.15.03-.07.06-.16.09-.23.14-.37.26-.71.41-1.06.16-.39.31-.79.48-1.19,6.76-15.99,21.55-27.05,37.5-29.38,4.81-.72,9.72-.63,14.55.35.52.1,1.04.22,1.55.37,1.05.26,2.09.54,3.08.9.24.06.47.15.7.25.45.14.9.3,1.33.49,8.77,3.49,15.53,9.83,20.58,16.59.42.54.8,1.06,1.18,1.61.4.56.77,1.09,1.14,1.65.45.68.88,1.32,1.29,2,.01.02.03.05.05.08.45.72.88,1.44,1.28,2.15.04.07.07.14.1.18.35.62.7,1.24,1.02,1.85.1.18.2.35.29.53.34.65.67,1.27.98,1.9.07.14.14.27.21.42.11.24.22.46.32.68.07.15.15.3.22.44h-.01c-.48-.08-.95-.16-1.43-.22,0,0,0-.01-.01-.01-14.85-2.31-29.85-2.12-44.69.62-2.41.43-4.79.94-7.15,1.52-13.71,3.3-26.71,8.73-38.75,16.19.01-.11.01-.24.02-.37ZM188.64,87.26c-5.8,8.98-6.74,19.27-5.42,29.86.17,1.36.38,2.71.62,4.08.23,1.36.5,2.7.78,4.05.25,1.15.52,2.33.8,3.47l37.76,6.59-27.12,27.09c3.1,8.25,7.49,19.24,10.38,24.09-7.11,2.19-13.86,5.04-20.16,8.56-4.25-6.59-18.11-37.37-19.64-41.3-2.89-7.48-5.25-14.56-7.05-21.27-.37-1.35-.71-2.67-1.02-3.98-.33-1.34-.65-2.69-.92-4.02-1.67-7.74-2.54-14.94-2.65-21.64,10.49-6.86,21.76-12.08,33.64-15.58ZM186.23,552.26c4.83,4.67,8.37,10.67,10.46,17.19.96,3.01,1.62,6.14,1.94,9.3l.58-.02c-.02-3.14-.4-6.31-1.1-9.4.24,0,.48-.03.73-.04,1.99,1.98,4.44,3.5,7.15,4.35l.22-.54c-2.19-.92-4.12-2.26-5.69-3.91-4.72-4.89-6.39-12.41-3.14-18.7,1.36-2.68,3.38-4.74,5.81-6.26l-.15.51c-1.8,6.36.45,13.32,5.87,17.1,1.03.71,2.16,1.3,3.35,1.75,5.79,2.16,12.6.56,17.37-3.98,2.01-1.9,3.42-4.36,4.16-7.01.3-1.11.7-2.49,1.16-4.15,4.38,5.16,6.35,12.65,1.84,18.3-.23.28-.47.56-.71.82-2.79,3.01-6.71,5.08-10.41,7.04l.18.56c5.04-.56,9.71-2.2,13.17-4.95,3.44,12.99-3.63,22.83-16.74,27.31-8.21,2.82-17.03,3.93-25.63,2.48-7.96-1.33-15.54-4.7-22.41-8.9-8.09-4.92-14.9-12.08-23.02-17.27-1.79-1.14-3.66-2.2-5.61-3.11-6.11-2.96-13.09-5.28-19.94-3.8-3,.67-5.75,2.23-7.88,4.36,8.68-29.6,45.75-41.07,68.44-19.05ZM116.96,572.2h0s-.01,0-.01,0h.01ZM162.91,606.9c-12.81-3.58-25.27-8.77-36.24-16.37-2.93-2.18-6.21-4.37-8.33-7.37l.13-.19c1.64-2.28,3.57-3.96,5.67-4.95,1.8-.85,3.73-1.2,5.74-.98,1.91.18,3.88.89,5.85,2.14,5.88,3.62,10.87,8.73,16.23,13.15,7.31,6.05,14.6,12.44,22.93,17.22-4.3-.76-8.5-1.64-11.97-2.64ZM238.24,598.49c-9.64,16.7-32.16,16.75-48.78,12.07-13.54-3.55-24.41-12.5-35.43-20.84l-8.28-6.54c-3.27-2.57-7.05-5.39-11-6.96-4.52-1.78-9.25-1.92-13.72,1.93-.21.18-.42.34-.62.54h-.01c-.92.86-1.72,1.8-2.44,2.81-.4-.69-.7-1.41-.9-2.17-.63-2.22-.44-4.67.44-6.85,2.3-2.27,5.26-3.82,8.4-4.3,6.51-1.02,12.96,1.56,18.58,4.67.9.5,1.77,1,2.63,1.54h.01c9.01,5.71,15.83,14.22,24.89,20.2,10.13,6.77,21.7,11.57,34.11,11.89,13.18.18,29.27-5.41,34.93-17.93-.48,3.45-1.39,6.8-2.82,9.93ZM385.47,552.72s.02.06.02.08c.83,6.22,1.47,15.68-2.9,20.63-.31.35-.66.69-1.01,1.01-2.19,2-5.07,3.61-7.66,5.8-2.26,1.85-4.32,4.17-5.9,6.63-4.64,6.76-8.08,14.54-14.36,19.9-9.93,7.74-23.48,8.89-35.72,8.2-8.85-.57-17.99-1.65-25.7-6.25-6.14-3.58-9.57-10.07-10.54-17.09-.07-.48-.14-.95-.19-1.42,4.19,9.33,16.37,14.32,27.22,16.18,13.63,2.39,28.78,1.57,40.47-6.67,9.21-6.39,11.9-18.17,20.14-24.99.6-.52,1.23-1.06,1.88-1.61,5.19-4.35,11.11-8.78,13.15-15.56.51-1.56.89-3.19,1.11-4.84ZM340.58,544.34c1.6.63,3.23.93,4.85.93,5.54,0,10.74-3.49,12.65-9.07,2.18-6.35-.7-13.35-6.73-16.32-.45-.22-.9-.46-1.33-.68.26-.06.52-.1.78-.16,7.43-1.29,15.97,3,17.31,10.91.75,4.05-.49,8.32-1.4,12.35l.4.16c2.03-3.52,3.85-7.55,4.02-11.69,11.59,4.62,13.94,16.11,8.72,27.1-3.08,5.69-8.95,8.79-13.87,12.96-.58.49-1.16.99-1.72,1.49-1.52,1.41-2.96,2.93-4.29,4.55-3.6,4.51-5.97,9.38-8.98,13.3-9.5,12.16-27.12,14.14-41.56,11.98-13.18-1.97-30.05-8.73-25.26-25.05.66-3.35,1.83-6.6,3.42-9.63,3.21-6.08,8.13-11.29,14.06-14.75,7.95-4.29,17.76-5.48,26.52-3.16,4.99,1.64,9.66,4.35,13.85,7.52,2.03,1.61,4.13,3.36,5.45,5.61l.48-.24c-1.51-2.54-3.61-4.63-5.92-6.48,4.61,1.7,9.93,1.26,14.2-1.27l-.19-.38c-3.9,1.8-8.38,2.25-12.32.82-6.53-2.41-9.54-7.8-9.85-13.66,2.21,1.02,4.44,1.97,6.71,2.85ZM331.23,540.25c.16,4.13,1.53,8.12,4.47,11.4-9.24-5.88-21.12-6.18-31.32-2.6-8.7,3.25-15.83,10.07-20.04,18.33-6.62-.14-13.35-.2-20.14-.2-7.57,0-15.04.08-22.4.24,2.6-3.33,3.78-7.7,2.78-13.14-1.03-5.19-3.94-9.32-7.8-12.33v-.02c5.51-19.62,15.14-53.99,15.15-53.99,3.85-13.16,7.51-25.51,10.18-34.48,2.58-.06,5.19-.18,7.82-.3,6.68-.35,13.22-.89,19.56-1.56-.63,4.63-.95,9.34-1.12,14.08-.88,19.67,4.59,39.21,15.41,52.95,7.57,9.77,17.1,16.55,27.43,21.62ZM366.8,417.19c-.19.37-.4.71-.64,1.04-.1.16-.22.32-.33.46-.98,1.26-2.24,2.22-3.66,2.78-.62.25-1.26.43-1.93.51-1.43.22-2.92.02-4.29-.54-1.42-.58-2.89-1.19-4.39-1.8-6.6-2.75-13.94-5.78-21.94-8.6-.01,0-.03-.02-.04-.02s-.03-.01-.04-.01c-13.17-4.62-28.18-8.68-44.87-9.91h-.01c-3.03-.22-6.12-.33-9.27-.35h-.01c-4.57-.05-9.24.15-14.03.6-3.62.34-7.29.78-10.89,1.3-22.11,3.13-43.66,9.28-64.29,18.29-.03.01-.06.02-.09.04h-.01c-1.35.59-2.68,1.18-4.02,1.79-.01.01-.03.01-.04.03-3.02,1.38-6.02,2.83-8.99,4.33l-.05-.19-.17-.53-2.52-8.37c.06-.03.14-.07.21-.11,24.86-14,51.4-22.84,78.88-26.27,50.74-6.32,93.3,7.43,120.22,20.17-.92,1.79-1.86,3.58-2.78,5.36ZM450.53,242.87c-4.6,9.73-9.17,19.49-13.7,29.18-2.7,5.77-5.38,11.53-8.05,17.25-18.8,40.35-38.2,81.96-58.23,120.69-27.17-12.9-70.14-26.8-121.44-20.4-27.68,3.45-54.41,12.33-79.46,26.4l-11.23-37.22-10.55-34.94-52.93-175.33c-1.48-4.89.6-10.14,4.85-12.18,18.02-8.66,36.45-16.11,55.2-22.34,1.86,6.82,4.23,13.99,7.14,21.51.58,1.51,5.41,12.44,10.14,22.54,10.02,21.39,11.36,21.86,12.64,22.32.42.16.85.2,1.27.14.32-.06.64-.16.92-.33,8.65-5.04,18.24-8.77,28.49-11.08,16.39-3.71,30.23-2.77,38.96-1.35,1.27.21,2.49-.62,2.76-1.89,5.26-24.76,6.62-50.59,3.93-73.55,7.48-.6,14.98-1.03,22.44-1.26,8.67-.27,17.27-.3,25.82-.11-.24,7.21-.05,14.93.56,23.17.11,1.63,1.56,13.47,3.16,24.51,3.38,23.38,4.52,24.23,5.62,25.03.35.26.76.42,1.18.48.13.02.25.02.38.02.2,0,.4-.02.59-.06,9.74-2.3,20-3.09,30.48-2.33,16.76,1.21,29.74,6.12,37.68,10.03,1.16.56,2.57.11,3.18-1,11.42-20.7,19.85-43.31,24.25-64.73,23.29,6.25,45.96,14.41,67.95,24.48,2.42,1.12,4.31,3.33,5.16,6.06.85,2.72.6,5.69-.68,8.17-13.1,25.16-25.93,51.58-38.49,78.13ZM470.29,330.23c.48-.39.97-.74,1.48-1.05,7.21-4.57,17.55-3.36,24.23,1.63,2.19,1.65,4.24,3.75,5.59,6.16,1.39,2.45,2.06,5.2,1.45,8.07-.43,1.75-1.58,3.36-3.12,4.77-.17.16-.33.3-.5.44-.32-.84-.71-1.67-1.18-2.45h-.01c-.18-.42-.39-.83-.62-1.22-4.36-7.44-14.03-10.39-22.16-8.43-1.41.3-2.71.8-3.9,1.43-1.93,1.03-3.6,2.45-5.06,4.09-1.86-4.65-.38-10.15,3.8-13.43ZM521.53,400.54c-.81,3.75-6.07,5.45-9.28,3.39-3.94-2.39-5.77-6.67-7.95-10.67-1.79-2.97-4.07-6.99-8.06-7.25-2.11.05-3.47,1.07-4.14,2.47-.02.04-.03.06-.04.08-3.14,5.52,5.54,20.29,6.01,25.45,1.48,5.95-3.97,12.92-10.22,10.07-7.51-3.93-5.74-14.35-7.75-21.59-1-3.87-1.81-9.6-6.09-11.31-1.08-.34-2.31.04-3.12.8,0,0-.01,0-.01.01-2.58,1.93-2.64,7.69-2.78,10.36-.16,4.09-.3,8.17-1.16,11.91-.79,3.39-2.32,6.82-5.61,8.05-2.92,1.07-6.65.81-8.84-1.61-5.16-5.9-1.54-14.81.16-21.62,1.13-3.93,2.36-7.93,3.14-12.03.42-2.14.95-4.7-.68-6.52-.16-.12-.31-.24-.48-.34-2.9-2.45-10.76,2.15-13.84,2.5-2.46.56-4.87.69-6.73-.28-4.13-1.84-4.24-7.29-1.29-10.2,3.21-3.78,8.31-5.18,13.1-6.6,10.17-2.71,14.49-5.86,19.36-15.23.7-1.3,1.46-2.57,2.29-3.75.05-.07.11-.16.17-.23.07-.08.14-.19.2-.26.98-1.3,2.08-2.49,3.34-3.47,1.38-1.08,2.96-1.91,4.82-2.41,7.3-2.26,16.07.28,20.42,6.26,0,0,.01,0,.01.02.78,1.54,1.18,3.18,1.41,4.87.02.14.04.28.05.43.02.11.04.23.05.35.16,1.35.23,2.69.33,4.04.07,1,.17,2.02.32,3.02.84,6,2.92,11.99,6.22,17.19,3.02,4.95,8.11,8.26,12.01,12.43.22.25.45.51.68.77.22.24.43.49.64.75.12.15.22.27.33.41l.03.04s.04.06.07.08c.85,1.14,1.64,2.38,2.22,3.73.78,1.94,1.15,4.07.7,5.87Z"/>
      <path class="cls-1" d="M92.25,371.1c-.21-.42-.43-.8-.66-1.17-1.58-2.52-3.65-4.45-6.11-6.3-.19-.11-.38-.24-.57-.35-.41-.25-.82-.48-1.25-.7-.39-.22-.77-.43-1.17-.63-3.67-1.85-7.68-3.28-11.3-5.02-4.3-2.21-8.06-5.53-11.02-9.32-4.2-4.92-6.68-12.43-12.84-15.06-6.35-1.91-10.51,3.41-8.25,9.5.94,2.99,2.93,6,4.72,8.71,3.08,4.61,6.67,8.69,10.79,12.52h.01c.79.08,1.6.15,2.42.17l.06.43c-6.75,2.39-14.49.68-20.81-2.16l-6.32-2.52c-6.01-2.14-12.35-5.04-18.59-3.57-3.61.89-6.3,5.08-5.68,8.65,1.42,6.08,8.86,9.44,14.22,11.69,7.82,3.15,16.31,4.69,24.84,4.52.3-1.39,1.04-2.61,2.44-3.41l.21.1c.31,2.09-.24,3.59-.92,5.41-.43,1.76-.4,3.57.1,5.35l-.21.1c-.58-.78-1.03-1.67-1.36-2.65-.08-.32-.17-.68-.22-1.02-5.87,2.11-11.89,3.71-17.99,4.97-3.63.74-9.13,1.61-12.61,2.52-5.07,1.17-11.84,4.41-10.49,10.52,1.12,4.21,5.88,6.4,10.02,6.77,10.17,1.28,20.21-2.43,29-7.32,1.56-.84,3.09-1.76,4.6-2.69-.5-1.11-.62-2.33-.02-3.61l.23-.04c1.48,1.45,2.03,2.73,2.73,4.52.85,1.52,1.99,2.91,3.43,3.98l-.1.21c-.92-.22-1.79-.67-2.62-1.18-.01-.01-.02-.01-.03-.02-2.6,3.42-5.41,6.74-8.63,9.63-4.1,3.81-13.22,10-10.99,16.26,2.53,5.48,7.81,4.73,12.38,1.63,5.1-3.21,8.53-8.1,12.82-12.45,6.56-7.04,16.44-9.17,24.73-13.23,1.49-.67,2.85-1.45,4.09-2.33.08-.04.16-.08.23-.15.07-.04.16-.12.23-.18,3.15-2.29,5.48-5.19,6.98-8.62,1.23-2.83,1.91-6.02,2.02-9.51.15-4.39-.58-9-2.54-12.95ZM68.41,384.12c-4.65-2.85-8.65-7.53-9.21-13.08l.29-.06c1.54,4.97,5.55,8.71,10.17,10.77,2.6.95,5.22,1.87,7.85,2.73,1.13.33,2.24.62,3.4.97l.02.3c-4.09,1.67-8.93.81-12.53-1.64Z"/>
      <path class="cls-1" d="M106.46,397.11c-.47.97-1.02,1.9-1.65,2.76-3.24,4.47-9.02,6.34-14.29,4.42-.68-.21-1.36-.45-2.01-.74.65-.55,1.27-1.13,1.87-1.73,1.92-2,3.42-4.41,4.51-7.06,3.32-8.16,2.65-18.51-2.05-25.69-.59-.93-1.27-1.8-2.01-2.61-1.22-1.21-2.7-2.45-4.32-3.59-.13-.08-.25-.17-.38-.27.65-.33,1.29-.59,1.96-.81,5-1.65,9.88.09,13.38,3.59h.01c1.14,1.12,2.13,2.42,2.94,3.85,4.52,7.47,6.04,19.53,2.04,27.88Z"/>
      <path class="cls-1" d="M174.88,609.54c-4.3-.76-8.5-1.64-11.97-2.64-12.81-3.58-25.27-8.77-36.24-16.37-2.93-2.18-6.21-4.37-8.33-7.37l.13-.19c1.64-2.28,3.57-3.96,5.67-4.95,1.8-.85,3.73-1.2,5.74-.98,1.91.18,3.88.89,5.85,2.14,5.88,3.62,10.87,8.73,16.23,13.15,7.31,6.05,14.6,12.44,22.93,17.22Z"/>
      <path class="cls-1" d="M241.06,588.56c-.48,3.45-1.39,6.8-2.82,9.93-9.64,16.7-32.16,16.75-48.78,12.07-13.54-3.55-24.41-12.5-35.43-20.84l-8.28-6.54c-3.27-2.57-7.05-5.39-11-6.96-4.52-1.78-9.25-1.92-13.72,1.93-.21.18-.42.34-.62.54h-.01c-.92.86-1.72,1.8-2.44,2.81-.4-.69-.7-1.41-.9-2.17-.63-2.22-.44-4.67.44-6.85,2.3-2.27,5.26-3.82,8.4-4.3,6.51-1.02,12.96,1.56,18.58,4.67.9.5,1.77,1,2.63,1.54h.01c9.01,5.71,15.83,14.22,24.89,20.2,10.13,6.77,21.7,11.57,34.11,11.89,13.18.18,29.27-5.41,34.93-17.93Z"/>
      <path class="cls-1" d="M222.28,597.54c-8.21,2.82-17.03,3.93-25.63,2.48-7.96-1.33-15.54-4.7-22.41-8.9-8.09-4.92-14.9-12.08-23.02-17.27-1.79-1.14-3.66-2.2-5.61-3.11-6.11-2.96-13.09-5.28-19.94-3.8-3,.67-5.75,2.23-7.88,4.36,8.68-29.6,45.75-41.07,68.44-19.05,4.83,4.67,8.37,10.67,10.46,17.19.96,3.01,1.62,6.14,1.94,9.3l.58-.02c-.02-3.14-.4-6.31-1.1-9.4.24,0,.48-.03.73-.04,1.99,1.98,4.44,3.5,7.15,4.35l.22-.54c-2.19-.92-4.12-2.26-5.69-3.91-4.72-4.89-6.39-12.41-3.14-18.7,1.36-2.68,3.38-4.74,5.81-6.26l-.15.51c-1.8,6.36.45,13.32,5.87,17.1,1.03.71,2.16,1.3,3.35,1.75,5.79,2.16,12.6.56,17.37-3.98,2.01-1.9,3.42-4.36,4.16-7.01.3-1.11.7-2.49,1.16-4.15,4.38,5.16,6.35,12.65,1.84,18.3-.23.28-.47.56-.71.82-2.79,3.01-6.71,5.08-10.41,7.04l.18.56c5.04-.56,9.71-2.2,13.17-4.95,3.44,12.99-3.63,22.83-16.74,27.31Z"/>
      <path class="cls-1" d="M382.59,573.43c-.31.35-.66.69-1.01,1.01-2.19,2-5.07,3.61-7.66,5.8-2.26,1.85-4.32,4.17-5.9,6.63-4.64,6.76-8.08,14.54-14.36,19.9-9.93,7.74-23.48,8.89-35.72,8.2-8.85-.57-17.99-1.65-25.7-6.25-6.14-3.58-9.57-10.07-10.54-17.09-.07-.48-.14-.95-.19-1.42,4.19,9.33,16.37,14.32,27.22,16.18,13.63,2.39,28.78,1.57,40.47-6.67,9.21-6.39,11.9-18.17,20.14-24.99.6-.52,1.23-1.06,1.88-1.61,5.19-4.35,11.11-8.78,13.15-15.56.51-1.56.89-3.19,1.11-4.84.01.02.02.06.02.08.83,6.22,1.47,15.68-2.9,20.63Z"/>
      <path class="cls-1" d="M379.85,557.86c-3.08,5.69-8.95,8.79-13.87,12.96-.58.49-1.16.99-1.72,1.49-1.52,1.41-2.96,2.93-4.29,4.55-3.6,4.51-5.97,9.38-8.98,13.3-9.5,12.16-27.12,14.14-41.56,11.98-13.18-1.97-30.05-8.73-25.26-25.05.66-3.35,1.83-6.6,3.42-9.63,3.21-6.08,8.13-11.29,14.06-14.75,7.95-4.29,17.76-5.48,26.52-3.16,4.99,1.64,9.66,4.35,13.85,7.52,2.03,1.61,4.13,3.36,5.45,5.61l.48-.24c-1.51-2.54-3.61-4.63-5.92-6.48,4.61,1.7,9.93,1.26,14.2-1.27l-.19-.38c-3.9,1.8-8.38,2.25-12.32.82-6.53-2.41-9.54-7.8-9.85-13.66,2.21,1.02,4.44,1.97,6.71,2.85,1.6.63,3.23.93,4.85.93,5.54,0,10.74-3.49,12.65-9.07,2.18-6.35-.7-13.35-6.73-16.32-.45-.22-.9-.46-1.33-.68.26-.06.52-.1.78-.16,7.43-1.29,15.97,3,17.31,10.91.75,4.05-.49,8.32-1.4,12.35l.4.16c2.03-3.52,3.85-7.55,4.02-11.69,11.59,4.62,13.94,16.11,8.72,27.1Z"/>
      <path class="cls-1" d="M520.83,394.67c-.58-1.36-1.37-2.6-2.22-3.73-.03-.02-.05-.06-.07-.08l-.03-.04c-.11-.14-.22-.26-.33-.41-.21-.26-.42-.51-.64-.75-.23-.26-.46-.52-.68-.77-3.9-4.17-8.99-7.48-12.01-12.43-3.3-5.19-5.37-11.19-6.22-17.19-.16-1-.25-2.02-.32-3.02-.1-1.35-.18-2.69-.33-4.04-.01-.13-.03-.24-.05-.35-.01-.15-.03-.29-.05-.43-.23-1.69-.63-3.33-1.41-4.87,0-.02-.01-.02-.01-.02-4.35-5.98-13.12-8.52-20.42-6.26-1.86.5-3.44,1.32-4.82,2.41-1.26.98-2.36,2.17-3.34,3.47-.06.07-.13.18-.2.26-.05.07-.11.16-.17.23-.83,1.19-1.6,2.45-2.29,3.75-4.87,9.37-9.19,12.51-19.36,15.23-4.79,1.42-9.89,2.83-13.1,6.6-2.95,2.91-2.84,8.36,1.29,10.2,1.86.97,4.27.84,6.73.28,3.08-.35,10.94-4.95,13.84-2.5.17.1.32.22.48.34,1.63,1.81,1.1,4.38.68,6.52-.78,4.11-2.01,8.1-3.14,12.03-1.7,6.81-5.32,15.72-.16,21.62,2.19,2.42,5.92,2.68,8.84,1.61,3.3-1.23,4.82-4.66,5.61-8.05.85-3.74,1-7.82,1.16-11.91.15-2.67.21-8.43,2.78-10.36,0-.01.01-.01.01-.01.8-.76,2.03-1.15,3.12-.8,4.28,1.7,5.09,7.44,6.09,11.31,2.01,7.24.24,17.66,7.75,21.59,6.25,2.85,11.7-4.12,10.22-10.07-.47-5.15-9.15-19.93-6.01-25.45.01-.02.02-.04.04-.08.67-1.4,2.03-2.42,4.14-2.47,3.99.26,6.27,4.28,8.06,7.25,2.18,3.99,4,8.28,7.95,10.67,3.21,2.06,8.47.37,9.28-3.39.45-1.8.08-3.93-.7-5.87ZM472.42,359.67c-.68,1.06-1.38,2.13-2.11,3.17-.66.96-1.35,1.88-2.08,2.78l-.21-.13c.49-1.28,1.1-2.91,1.69-4.43.32-.83.65-1.64.94-2.3.76-2.39,1.94-4.69,4.23-5.93l.21.12c-.07,2.66-1.13,4.71-2.68,6.72ZM481.9,362.4c-.52,2.5-1.13,5.02-1.8,7.49l-.25-.04c-.05-2.57-.03-5.13.07-7.69-.13-2.63.22-5.27,1.8-7.48h.24c.51,1.3.65,2.59.65,3.92.03,1.29-.45,2.53-.71,3.8ZM492.66,370.98c-.3-.54-.56-1.09-.8-1.66-.78-1.78-1.31-3.68-1.86-5.54-.96-2.47-1.3-4.81-.87-7.49l.23-.09c.57.46.97,1.04,1.29,1.63,1.05,1.7,1.2,3.65,1.29,5.58l.4,3.77c.05.52.1,1.02.17,1.54.09.72.22,1.45.38,2.17l-.23.09Z"/>
      <path class="cls-1" d="M503.04,345.04c-.43,1.75-1.58,3.36-3.12,4.77-.17.16-.33.3-.5.44-.32-.84-.71-1.67-1.18-2.45h-.01c-.18-.42-.39-.83-.62-1.22-4.36-7.44-14.03-10.39-22.16-8.43-1.41.3-2.71.8-3.9,1.43-1.93,1.03-3.6,2.45-5.06,4.09-1.86-4.65-.38-10.15,3.8-13.43.48-.39.97-.74,1.48-1.05,7.21-4.57,17.55-3.36,24.23,1.63,2.19,1.65,4.24,3.75,5.59,6.16,1.39,2.45,2.06,5.2,1.45,8.07Z"/>
      <path class="cls-1" d="M369.58,411.83c-.92,1.79-1.86,3.58-2.78,5.36-.19.37-.4.71-.64,1.04-.1.16-.22.32-.33.46-.98,1.26-2.24,2.22-3.66,2.78-.62.25-1.26.43-1.93.51-1.43.22-2.92.02-4.29-.54-1.42-.58-2.89-1.19-4.39-1.8-6.6-2.75-13.94-5.78-21.94-8.6-.01,0-.03-.02-.04-.02s-.03-.01-.04-.01c-13.17-4.62-28.18-8.68-44.87-9.91h-.01c-3.03-.22-6.12-.33-9.27-.35h-.01c-4.57-.05-9.24.15-14.03.6-3.62.34-7.29.78-10.89,1.3-22.11,3.13-43.66,9.28-64.29,18.29-.03.01-.06.02-.09.04h-.01c-1.35.59-2.68,1.18-4.02,1.79-.01.01-.03.01-.04.03-3.02,1.38-6.02,2.83-8.99,4.33l-.05-.19-.17-.53-2.52-8.37c.06-.03.14-.07.21-.11,24.86-14,51.4-22.84,78.88-26.27,50.74-6.32,93.3,7.43,120.22,20.17Z"/>
      <path class="cls-1" d="M489.7,156.57c-.85-2.73-2.74-4.94-5.16-6.06-21.99-10.06-44.67-18.23-67.95-24.48-4.4,21.42-12.83,44.03-24.25,64.73-.62,1.12-2.02,1.56-3.18,1-7.94-3.91-20.92-8.82-37.68-10.03-10.48-.76-20.74.02-30.48,2.33-.2.04-.4.06-.59.06-.13,0-.25,0-.38-.02-.42-.06-.82-.22-1.18-.48-1.11-.8-2.24-1.65-5.62-25.03-1.6-11.03-3.05-22.88-3.16-24.51-.62-8.24-.8-15.97-.56-23.17-8.55-.19-17.15-.16-25.82.11-7.47.23-14.96.66-22.44,1.26,2.69,22.96,1.32,48.8-3.93,73.55-.27,1.27-1.49,2.1-2.76,1.89-8.73-1.43-22.57-2.37-38.96,1.35-10.25,2.3-19.85,6.04-28.49,11.08-.28.18-.59.27-.92.33-.42.06-.85.02-1.27-.14-1.28-.46-2.62-.93-12.64-22.32-4.72-10.09-9.55-21.02-10.14-22.54-2.91-7.53-5.29-14.69-7.14-21.51-18.75,6.23-37.18,13.68-55.2,22.34-4.24,2.04-6.33,7.29-4.85,12.18l52.93,175.33,10.55,34.94,11.23,37.22c25.05-14.07,51.78-22.94,79.46-26.4,51.3-6.4,94.28,7.5,121.44,20.4,20.03-38.73,39.43-80.34,58.23-120.69,2.67-5.71,5.35-11.48,8.05-17.25,4.54-9.69,9.1-19.45,13.7-29.18,12.57-26.55,25.39-52.97,38.49-78.13,1.28-2.47,1.53-5.44.68-8.17ZM110.61,180.02c-2.5.16-4.66-1.75-4.82-4.25s1.75-4.65,4.25-4.81c2.5-.17,4.66,1.74,4.82,4.24.16,2.5-1.74,4.66-4.26,4.82ZM112,168.31c-2.51.16-4.66-1.76-4.82-4.26-.16-2.52,1.74-4.67,4.26-4.83,2.5-.15,4.66,1.74,4.82,4.27.16,2.49-1.75,4.65-4.26,4.82ZM121.39,174.79c-2.51.17-4.67-1.75-4.83-4.24-.16-2.5,1.75-4.67,4.26-4.83,2.51-.15,4.67,1.76,4.83,4.27.16,2.49-1.75,4.65-4.26,4.81ZM258.19,246.38c6.84-4.91,12.19-11.53,15.68-19.15,1.46-3.19,6.25-.65,4.81,2.48-3.1,6.74-7.57,12.73-13.09,17.6,8.69,2.19,17.4,4.38,26.07,6.55,3.38.85,2.2,6.13-1.19,5.27-10.47-2.62-20.95-5.25-31.4-7.86-2.33-.57-2.76-3.55-.89-4.89ZM347.68,259.83c-5.25,4.27-12.56,8.18-21.16,11.61-.1.74-.27,1.47-.52,2.19,1.03,12.49-1.08,22.89-5.2,31.19v.02c-2.52,7.7-8.68,14.81-17.19,19.45-4.68,2.57-9.72,4.18-14.87,4.88-2.55.34-5.14.46-7.73.34h-.02c-20.58-.11-41.92-14.26-48.05-43.4-.55-1.17-.77-2.25-.83-3.09-6.05-1.06-11.54-2.64-16.24-4.77-2.34,2.42-5.75,3.96-10.03,4.55-.99.14-2.04.2-3.14.24-.89.04-1.74-.56-1.91-1.43-.21-1.11.64-2.08,1.71-2.11,5.51-.14,9.52-1.73,11.61-4.65,1.94-2.7,2.18-6.47.71-11.17-.29-.93.22-1.92,1.16-2.21.94-.28,1.93.23,2.22,1.16,1.85,5.9,1.08,9.99-.24,12.67,31.91,13.88,103.4,1.12,127.36-18.13-1.5-2.29-2.68-5.7-2.5-10.73.03-.98.88-1.74,1.83-1.71.99.03,1.75.85,1.72,1.85-.18,4.91,1.04,8.47,3.64,10.56,2.78,2.25,7.08,2.74,12.43,1.41.97-.24,1.95.36,2.17,1.37.2.95-.48,1.88-1.43,2.1-1.06.25-2.1.46-3.11.59-5.03.69-9.24-.24-12.31-2.71-.02-.02-.05-.04-.07-.07ZM350.04,378.72c-.16-2.5,1.74-4.66,4.26-4.83,2.5-.16,4.66,1.75,4.82,4.26.16,2.52-1.75,4.67-4.26,4.83-2.5.17-4.66-1.74-4.82-4.26ZM360.08,393.74c-2.5.16-4.66-1.74-4.82-4.26-.16-2.5,1.75-4.65,4.26-4.82,2.5-.16,4.66,1.75,4.82,4.26.16,2.51-1.75,4.66-4.26,4.82ZM366.58,384.36c-2.5.16-4.66-1.74-4.82-4.26-.16-2.5,1.75-4.65,4.26-4.82,2.5-.16,4.66,1.75,4.82,4.26.16,2.51-1.74,4.66-4.26,4.82Z"/>
      <path class="cls-1" d="M413.67,85.45h0c-.55-.27-1.11-.55-1.66-.81-12.89-6.32-26.6-10.43-40.87-12.23-2.84-.34-5.7-.6-8.57-.78-14.13-.82-28.51.68-42.2,4.43.44-1.19.9-2.35,1.38-3.49.23-.56.47-1.13.74-1.69.25-.55.51-1.11.77-1.64.17-.37.35-.74.54-1.08.19-.37.37-.73.56-1.08.22-.4.44-.78.66-1.18.22-.41.45-.78.67-1.17.23-.4.46-.76.69-1.15.69-1.14,1.43-2.22,2.2-3.28.24-.35.5-.7.77-1.04.25-.34.51-.69.79-1.02.26-.34.53-.68.8-1,11.12-13.34,28.47-19.64,44.43-17.23,4.8.72,9.47,2.22,13.81,4.57.41.22.82.45,1.22.69.16.08.3.18.45.27.3.19.59.37.89.55.23.16.46.29.69.45.29.21.58.41.87.62.24.16.48.33.72.52.51.38,1.01.76,1.49,1.18.29.24.57.48.85.74.83.72,1.64,1.48,2.4,2.28.33.34.67.7.99,1.06,4.85,5.33,8.13,11.7,10.34,17.97.2.54.38,1.06.55,1.61.45,1.32.82,2.63,1.17,3.91.22.8.42,1.61.59,2.39.2.8.38,1.61.53,2.39.15.7.28,1.39.39,2.04.14.7.25,1.39.34,2.06.01.02.01.04.01.07.01.03.02.05.02.08h-.01Z"/>
      <path class="cls-1" d="M341.71,164.81c.49,4.73,1.08,9.05,1.76,11.79-7.44.02-14.73.8-21.76,2.33-2.17-7.53-6.5-41-6.81-45.21-.6-8.09-.79-15.64-.56-22.66.04-1.41.1-2.78.19-4.13.07-1.41.18-2.76.29-4.11.66-7.78,1.9-14.84,3.72-21.2,11.95-3.61,24.51-5.43,36.99-5.38-8.59,7.14-12.52,17.2-14.28,28.19-.22,1.35-.41,2.69-.55,4.07-.16,1.37-.28,2.72-.39,4.11-.06.87-.13,1.73-.17,2.61l34.22,17.27-33.82,18.05c.28,4.39.68,9.54,1.17,14.28Z"/>
      <path class="cls-1" d="M196.06,162.4c3.1,8.25,7.49,19.24,10.38,24.09-7.11,2.19-13.86,5.04-20.16,8.56-4.25-6.59-18.11-37.37-19.64-41.3-2.89-7.48-5.25-14.56-7.05-21.27-.37-1.35-.71-2.67-1.02-3.98-.33-1.34-.65-2.69-.92-4.02-1.67-7.74-2.54-14.94-2.65-21.64,10.49-6.86,21.76-12.08,33.64-15.58-5.8,8.98-6.74,19.27-5.42,29.86.17,1.36.38,2.71.62,4.08.23,1.36.5,2.7.78,4.05.25,1.15.52,2.33.8,3.47l37.76,6.59-27.12,27.09Z"/>
      <path class="cls-1" d="M247.17,78.93h-.01c-.48-.08-.95-.16-1.43-.22,0,0,0-.01-.01-.01-14.85-2.31-29.85-2.12-44.69.62-2.41.43-4.79.94-7.15,1.52-13.71,3.3-26.71,8.73-38.75,16.19.01-.11.01-.24.02-.37.02-.53.06-1.08.12-1.62.07-.82.15-1.65.24-2.45.18-1.61.42-3.17.72-4.71.15-.78.3-1.54.48-2.28.13-.6.27-1.22.44-1.8.15-.6.31-1.19.48-1.77.12-.42.24-.83.39-1.26.11-.42.26-.83.41-1.24.12-.38.26-.76.4-1.15.03-.07.06-.16.09-.23.14-.37.26-.71.41-1.06.16-.39.31-.79.48-1.19,6.76-15.99,21.55-27.05,37.5-29.38,4.81-.72,9.72-.63,14.55.35.52.1,1.04.22,1.55.37,1.05.26,2.09.54,3.08.9.24.06.47.15.7.25.45.14.9.3,1.33.49,8.77,3.49,15.53,9.83,20.58,16.59.42.54.8,1.06,1.18,1.61.4.56.77,1.09,1.14,1.65.45.68.88,1.32,1.29,2,.01.02.03.05.05.08.45.72.88,1.44,1.28,2.15.04.07.07.14.1.18.35.62.7,1.24,1.02,1.85.1.18.2.35.29.53.34.65.67,1.27.98,1.9.07.14.14.27.21.42.11.24.22.46.32.68.07.15.15.3.22.44Z"/>
      <path class="cls-2" d="M80.94,385.76c-4.09,1.67-8.93.81-12.53-1.64-4.65-2.85-8.65-7.53-9.21-13.08l.29-.06c1.54,4.97,5.55,8.71,10.17,10.77,2.6.95,5.22,1.87,7.85,2.73,1.13.33,2.24.62,3.4.97l.02.3Z"/>
      <path class="cls-2" d="M492.89,370.88l-.23.09c-.3-.54-.56-1.09-.8-1.66-.78-1.78-1.31-3.68-1.86-5.54-.96-2.47-1.3-4.81-.87-7.49l.23-.09c.57.46.97,1.04,1.29,1.63,1.05,1.7,1.2,3.65,1.29,5.58l.4,3.77c.05.52.1,1.02.17,1.54.09.72.22,1.45.38,2.17Z"/>
      <path class="cls-2" d="M482.61,358.6c.03,1.29-.45,2.53-.71,3.8-.52,2.5-1.13,5.02-1.8,7.49l-.25-.04c-.05-2.57-.03-5.13.07-7.69-.13-2.63.22-5.27,1.8-7.48h.24c.51,1.3.65,2.59.65,3.92Z"/>
      <path class="cls-2" d="M475.1,352.96c-.07,2.66-1.13,4.71-2.68,6.72-.68,1.06-1.38,2.13-2.11,3.17-.66.96-1.35,1.88-2.08,2.78l-.21-.13c.49-1.28,1.1-2.91,1.69-4.43.32-.83.65-1.64.94-2.3.76-2.39,1.94-4.69,4.23-5.93l.21.12Z"/>
      <path class="cls-2" d="M290.48,259.13c-10.47-2.62-20.95-5.25-31.4-7.86-2.33-.57-2.76-3.55-.89-4.89,6.84-4.91,12.19-11.53,15.68-19.15,1.46-3.19,6.25-.65,4.81,2.48-3.1,6.74-7.57,12.73-13.09,17.6,8.69,2.19,17.4,4.38,26.07,6.55,3.38.85,2.2,6.13-1.19,5.27Z"/>
      <path class="cls-2" d="M364.6,259.92c-.22-1-1.2-1.61-2.17-1.37-5.35,1.33-9.65.84-12.43-1.41-2.6-2.1-3.82-5.65-3.64-10.56.03-.99-.73-1.81-1.72-1.85-.95-.03-1.79.73-1.83,1.71-.18,5.03,1,8.44,2.5,10.73-23.95,19.24-95.44,32.01-127.36,18.13,1.32-2.68,2.09-6.77.24-12.67-.29-.93-1.28-1.44-2.22-1.16-.94.29-1.45,1.28-1.16,2.21,1.47,4.7,1.23,8.47-.71,11.17-2.09,2.92-6.1,4.52-11.61,4.65-1.07.03-1.92,1-1.71,2.11.17.87,1.02,1.47,1.91,1.43,1.1-.04,2.15-.1,3.14-.24,4.29-.58,7.7-2.13,10.03-4.55,4.69,2.13,10.19,3.7,16.24,4.77.06.83.28,1.92.83,3.09,6.12,29.15,27.47,43.29,48.05,43.41h.02c2.59.1,5.17-.01,7.73-.35,5.15-.7,10.19-2.32,14.87-4.88,8.51-4.64,14.66-11.75,17.18-19.45v-.02c4.13-8.3,6.25-18.7,5.21-31.19.25-.72.42-1.45.52-2.19,8.6-3.43,15.91-7.34,21.16-11.61.02.03.05.05.07.07,3.07,2.47,7.28,3.4,12.31,2.71,1.01-.14,2.04-.34,3.11-.59.95-.22,1.63-1.15,1.43-2.1ZM317.24,304.25c-.02.05-.03.1-.06.18-2.35,6.58-7.81,12.68-15.27,16.75-7.18,3.92-15.04,5.49-22.93,4.72-.24-.01-.47-.03-.7-.06-5.49-.62-10.98-2.37-16.24-5.21,4.37-13.03,20.4-14.44,27.64-14.4-.15.21-.3.43-.46.65-.1.15-.21.3-.31.48-.28.42-.56.87-.83,1.35-.12.21-.24.43-.35.65-.78,1.45-1.51,3.14-2.06,5.08-.09.3-.17.6-.25.92-.04.19-.09.37-.14.56-.06.25-.12.51-.16.76-.07.35-.15.74-.2,1.11-.01.04-.02.08-.02.13-.03.12-.05.26-.07.4-.01.08-.01.16-.01.23,0,.88.69,1.65,1.61,1.71.12.01.25,0,.37-.01.79-.12,1.46-.74,1.58-1.58.05-.33.09-.68.17-1.01.08-.43.17-.83.27-1.24,0-.03.02-.08.03-.13.16-.64.33-1.27.54-1.86.04-.09.06-.18.09-.26.07-.19.14-.38.2-.55.38-.96.78-1.83,1.2-2.6.14-.25.27-.49.41-.72.48-.8.94-1.5,1.38-2.06.16-.2.29-.39.43-.55.41-.5.76-.91,1.03-1.19l.07.02.62-.67c4.37-4.8,17.07-5.86,23.51-5.89-.2,1.45-.55,2.9-1.05,4.32ZM293.47,304.63h0s.01-.01.01-.01h0s-.01.01-.01.01ZM321.29,275.18c-.74,1.06-1.69,2.1-2.86,3.09-7.14,6.11-20.85,9.93-34.96,11.83-11.74,1.59-23.76,1.84-32.52.99-8.96-.87-12.64-3.43-14.15-5.43-.19-.24-.35-.5-.48-.74-.23-.41-.4-.79-.49-1.15,3.8.54,8.68.97,14.42,1.14.01,0,.02,0,.03.01h.07c17.19.46,41.93-1.49,67.34-10.09.02-.01.05-.02.08-.03,1.53-.52,3.07-1.07,4.62-1.64-.29.69-.67,1.37-1.12,2.03Z"/>
      <path class="cls-1" d="M318.3,299.94c-.2,1.45-.55,2.9-1.05,4.32-.02.05-.03.1-.06.18-2.35,6.58-7.81,12.68-15.27,16.75-7.18,3.92-15.04,5.49-22.93,4.72-.24-.01-.47-.03-.7-.06-5.49-.62-10.98-2.37-16.24-5.21,4.37-13.03,20.4-14.44,27.64-14.4-.15.21-.3.43-.46.65-.1.15-.21.3-.31.48-.28.42-.56.87-.83,1.35-.12.21-.24.43-.35.65-.78,1.45-1.51,3.14-2.06,5.08-.09.3-.17.6-.25.92-.04.19-.09.37-.14.56-.06.25-.12.51-.16.76-.07.35-.15.74-.2,1.11-.01.04-.02.08-.02.13-.03.12-.05.26-.07.4-.01.08-.01.16-.01.23,0,.88.69,1.65,1.61,1.71.12.01.25,0,.37-.01.79-.12,1.46-.74,1.58-1.58.05-.33.09-.68.17-1.01.08-.43.17-.83.27-1.24,0-.03.02-.08.03-.13.16-.64.33-1.27.54-1.86.04-.09.06-.18.09-.26.07-.19.14-.38.2-.55.38-.96.78-1.83,1.2-2.6.14-.25.27-.49.41-.72.48-.8.94-1.5,1.38-2.06.16-.2.29-.39.43-.55.41-.5.76-.91,1.03-1.19l.07.02.62-.67c4.37-4.8,17.07-5.86,23.51-5.89Z"/>
      <path class="cls-1" d="M322.4,273.15c-.29.69-.67,1.37-1.12,2.03-.74,1.06-1.69,2.1-2.86,3.09-7.14,6.11-20.85,9.93-34.96,11.83-11.74,1.59-23.76,1.84-32.52.99-8.96-.87-12.64-3.43-14.15-5.43-.19-.24-.35-.5-.48-.74-.23-.41-.4-.79-.49-1.15,3.8.54,8.68.97,14.42,1.14.01,0,.02,0,.03.01h.07c17.19.46,41.93-1.49,67.34-10.09.02-.01.05-.02.08-.03,1.53-.52,3.07-1.07,4.62-1.64Z"/>
      <path class="cls-2" d="M152.77,36.86c3.76.82,7.38-1.88,10.09-4.17,12.14-10.29,24.96-12.89,40.61-10.79,4.31.58,10.49,1.11,13.26-3.04,2.48-3.71.84-8.44-2.81-10.57-3.39-1.99-7.48-2.39-11.27-3.09-13.76-2.55-28.84.88-40.53,8.42-2.41,1.55-5.11,3.37-7.56,5.38-1.89,1.56-3.63,3.24-4.98,5.02-3.3,4.35-3.09,11.47,3.17,12.84Z"/>
      <path class="cls-2" d="M355.68,19.48c15.16-4.44,28.22-3.79,41.78,4.55,3.02,1.86,7.01,3.99,10.6,2.61,5.99-2.3,5.11-9.37,1.2-13.18-1.6-1.56-3.58-2.96-5.68-4.21-2.72-1.63-5.66-3.01-8.28-4.18-12.69-5.69-28.12-6.82-41.33-2.22-3.64,1.27-7.62,2.28-10.67,4.75-3.28,2.66-4.19,7.58-1.18,10.87,3.37,3.69,9.4,2.23,13.57,1.01Z"/>
      <path class="cls-2" d="M364.34,388.93c.16,2.51-1.75,4.66-4.26,4.82-2.5.16-4.66-1.74-4.82-4.26-.16-2.5,1.75-4.65,4.26-4.82,2.5-.16,4.66,1.75,4.82,4.26Z"/>
      <path class="cls-2" d="M370.84,379.54c.16,2.51-1.74,4.66-4.26,4.82-2.5.16-4.66-1.74-4.82-4.26-.16-2.5,1.75-4.65,4.26-4.82,2.5-.16,4.66,1.75,4.82,4.26Z"/>
      <path class="cls-2" d="M359.11,378.14c.16,2.52-1.75,4.67-4.26,4.83-2.5.17-4.66-1.74-4.82-4.26-.16-2.5,1.74-4.66,4.26-4.83,2.5-.16,4.66,1.75,4.82,4.26Z"/>
      <path class="cls-2" d="M125.65,169.98c.16,2.49-1.75,4.65-4.26,4.81-2.51.17-4.67-1.75-4.83-4.24-.16-2.5,1.75-4.67,4.26-4.83,2.51-.15,4.67,1.76,4.83,4.27Z"/>
      <path class="cls-2" d="M116.26,163.49c.16,2.49-1.75,4.65-4.26,4.82-2.51.16-4.66-1.76-4.82-4.26-.16-2.52,1.74-4.67,4.26-4.83,2.5-.15,4.66,1.74,4.82,4.27Z"/>
      <path class="cls-2" d="M114.86,175.2c.16,2.5-1.74,4.66-4.26,4.82-2.5.16-4.66-1.75-4.82-4.25s1.75-4.65,4.25-4.81c2.5-.17,4.66,1.74,4.82,4.24Z"/>
    </g>
  </g>
</svg>